<svg xmlns="http://www.w3.org/2000/svg" viewBox="0 0 1536 1024" width="1536" height="1024" shape-rendering="geometricPrecision">
<rect width="1536" height="1024" fill="#fefefe"/>
<polygon points="431.0,553.5 422.0,551.5 416.5,547.0 505.5,323.0 515.0,310.5 515.5,330.0 520.0,336.5 528.0,340.5 534.0,340.5 543.0,336.5 554.5,323.0 557.5,314.0 555.5,294.0 548.0,287.5 534.5,287.0 550.0,269.5 780.0,177.5 839.5,181.0 836.0,172.5 785.0,167.5 781.0,164.5 778.5,165.0 781.0,167.5 774.0,168.5 752.5,139.0 755.0,122.5 831.0,127.5 859.0,148.5 878.0,152.5 958.5,221.0 958.0,223.5 956.0,222.5 946.0,214.5 891.0,166.5 888.0,165.5 887.0,167.5 878.0,154.5 866.0,150.5 858.0,151.5 846.5,160.0 842.5,169.0 842.5,184.0 845.0,192.5 842.5,187.0 839.0,186.5 613.0,320.5 576.0,347.5 560.5,363.0 539.5,388.0 523.0,415.5 526.5,375.0 526.0,368.5 522.5,378.0 525.5,362.0 523.0,359.5 497.5,441.0 498.0,443.5 509.5,449.0 511.5,453.0 510.5,466.0 499.0,478.5 490.0,476.5 490.5,469.0 499.0,468.5 503.5,464.0 505.5,457.0 500.0,448.5 493.0,447.5 488.5,450.0 485.5,455.0 482.5,475.0 431.0,553.5" fill="#fefefe" />
<polygon points="895.0,158.5 880.0,146.5 865.0,144.5 835.5,128.0 879.0,131.5 905.5,153.0 895.0,158.5" fill="#fefefe" />
<polygon points="707.0,170.5 700.5,163.0 697.5,155.0 717.0,142.5 727.5,161.0 707.0,170.5" fill="#fefefe" />
<polygon points="644.0,224.5 639.0,222.5 640.0,220.5 699.0,179.5 703.0,177.5 713.0,179.5 732.0,169.5 735.5,166.0 734.5,157.0 739.0,153.5 751.0,148.5 766.5,169.0 767.0,175.5 644.0,224.5" fill="#fefefe" />
<polygon points="909.0,168.5 902.5,165.0 906.0,158.5 909.0,158.5 918.5,167.0 914.0,165.5 909.0,168.5" fill="#fefefe" />
<polygon points="620.0,218.5 617.5,217.0 620.0,213.5 689.0,166.5 691.5,167.0 691.0,170.5 620.0,218.5" fill="#fefefe" />
<polygon points="1008.0,315.5 879.5,231.0 891.0,231.5 901.5,223.0 904.5,216.0 904.5,204.0 899.0,192.5 899.5,213.0 895.5,220.0 889.0,224.5 875.0,223.5 854.0,214.5 849.5,209.0 845.5,193.0 860.0,205.5 874.0,205.5 880.0,202.5 886.5,195.0 889.5,186.0 890.0,173.5 1035.5,299.0 1025.0,297.5 955.0,275.5 998.0,304.5 1008.0,315.5" fill="#fefefe" />
<polygon points="607.5,313.0 781.0,217.5 824.0,192.5 829.5,185.0 789.0,182.5 790.5,199.0 788.0,201.5 607.5,313.0" fill="#fefefe" />
<polygon points="979.0,219.5 973.5,219.0 980.0,217.5 984.0,211.5 973.0,214.5 972.0,218.5 967.5,215.0 967.5,211.0 972.0,204.5 981.0,201.5 987.5,206.0 988.5,211.0 979.0,219.5" fill="#fefefe" />
<polygon points="580.0,250.5 577.5,250.0 585.0,242.5 610.0,221.5 618.5,228.0 595.0,244.5 580.0,250.5" fill="#fefefe" />
<polygon points="976.0,239.5 963.5,229.0 966.0,224.5 970.0,223.5 983.5,233.0 976.0,239.5" fill="#fefefe" />
<polygon points="1060.0,288.5 1053.0,287.5 1040.0,277.5 999.0,242.5 984.5,226.0 990.0,223.5 994.0,226.5 1060.0,284.5 1062.5,287.0 1060.0,288.5" fill="#fefefe" />
<polygon points="988.0,248.5 981.5,244.0 985.0,238.5 991.5,244.0 988.0,248.5" fill="#fefefe" />
<polygon points="1047.0,299.5 1026.5,280.0 1030.0,275.5 1046.5,289.0 1047.0,299.5" fill="#fefefe" />
<polygon points="1044.0,332.5 1042.5,321.0 1038.5,315.0 1048.0,313.5 1053.5,310.0 1055.5,305.0 1054.0,292.5 1057.5,298.0 1057.5,308.0 1053.0,313.5 1044.5,318.0 1044.0,332.5" fill="#fefefe" />
<polygon points="529.0,335.5 525.0,335.5 520.5,331.0 518.5,315.0 524.5,302.0 531.0,295.5 540.0,293.5 545.5,299.0 545.5,315.0 539.5,328.0 529.0,335.5" fill="#fefefe" />
<polygon points="1074.0,313.5 1071.5,313.0 1072.5,303.0 1069.0,294.5 1076.0,294.5 1080.5,300.0 1080.5,308.0 1074.0,313.5" fill="#fefefe" />
<polygon points="976.0,433.5 970.5,432.0 1007.5,392.0 1022.5,362.0 1022.5,355.0 1000.5,328.0 1001.0,324.5 1008.0,327.5 1018.5,340.0 1022.0,352.5 1024.0,341.5 1039.0,340.5 1048.5,348.0 1068.0,370.5 1074.0,372.5 1113.0,372.5 1118.5,369.0 1113.5,359.0 1103.0,349.5 1072.0,349.5 1064.5,343.0 1100.0,343.5 1111.0,351.5 1126.5,368.0 1140.5,392.0 1140.0,395.5 1075.0,397.5 1063.5,379.0 1034.0,350.5 1043.5,366.0 1031.5,386.0 1006.0,413.5 976.0,433.5" fill="#fefefe" />
<polygon points="425.5,550.0 478.5,468.0 483.5,448.0 492.5,439.0 516.0,361.5 458.5,468.0 425.5,542.0 423.5,549.0 425.5,550.0" fill="#fefefe" />
<polygon points="1025.0,446.5 1012.0,445.5 983.5,436.0 1007.0,419.5 1022.5,404.0 1045.0,367.5 1061.5,391.0 1063.5,398.0 1062.5,412.0 1057.5,424.0 1045.0,438.5 1025.0,446.5" fill="#fefefe" />
<polygon points="1025.5,443.0 1035.0,440.5 1044.0,434.5 1057.5,416.0 1059.5,396.0 1050.0,380.5 1026.0,409.5 989.5,435.0 1015.0,443.5 1025.5,443.0" fill="#fefefe" />
<polygon points="1078.5,395.0 1136.5,392.0 1132.0,381.5 1072.0,382.5 1078.5,395.0" fill="#fefefe" />
<polygon points="524.0,509.5 511.5,509.0 518.5,478.0 529.5,450.0 553.0,412.5 540.5,454.0 532.5,463.0 528.5,482.0 529.5,489.0 524.0,509.5" fill="#fefefe" />
<polygon points="542.0,482.5 538.0,482.5 536.5,479.0 538.0,475.5 544.0,476.5 548.5,473.0 549.0,461.5 551.5,470.0 542.0,482.5" fill="#fefefe" />
<polygon points="295.0,487.5 288.0,487.5 283.5,481.0 295.0,479.5 299.5,486.0 295.0,487.5" fill="#fefefe" />
<polygon points="276.0,488.5 261.5,488.0 265.0,481.5 273.0,480.5 278.5,487.0 276.0,488.5" fill="#fefefe" />
<polygon points="474.0,578.5 464.5,578.0 487.5,485.0 491.0,482.5 497.5,485.0 474.0,578.5" fill="#fefefe" />
<polygon points="518.0,581.5 513.5,580.0 519.5,564.0 537.5,490.0 540.0,489.5 518.0,581.5" fill="#fefefe" />
<polygon points="409.0,504.5 405.0,495.5 355.0,496.5 354.5,494.0 407.0,492.5 409.0,504.5" fill="#fefefe" />
<polygon points="225.0,525.5 227.5,501.0 231.0,498.5 348.5,494.0 344.0,505.5 306.0,508.5 289.0,523.5 225.0,525.5" fill="#fefefe" />
<polygon points="1410.0,566.5 1379.5,559.0 1399.0,561.5 1401.5,559.0 1388.5,505.0 1369.0,501.5 1393.5,503.0 1410.0,566.5" fill="#fefefe" />
<polygon points="1474.0,582.5 1416.5,568.0 1408.0,513.5 1439.0,513.5 1462.5,561.0 1445.5,504.0 1410.0,502.5 1446.0,502.5 1452.5,508.0 1474.0,582.5" fill="#fefefe" />
<polygon points="255.5,522.0 288.0,520.5 296.5,513.0 286.0,512.5 233.0,519.5 230.0,522.5 255.5,522.0" fill="#fefefe" />
<polygon points="313.0,525.5 302.5,525.0 310.0,515.5 315.0,515.5 313.0,525.5" fill="#fefefe" />
<polygon points="200.0,592.5 162.0,591.5 164.5,561.0 232.5,560.0 227.0,556.5 165.0,555.5 166.5,540.0 170.0,536.5 262.0,531.5 340.0,531.5 346.5,535.0 347.5,557.0 345.0,583.5 244.0,585.5 241.5,569.0 235.0,561.5 237.5,569.0 238.0,586.5 165.0,587.5 163.5,589.0 166.0,590.5 199.0,590.5 200.0,592.5" fill="#fefefe" />
<polygon points="362.0,563.5 358.5,536.0 352.0,535.5 350.0,540.5 347.0,532.5 360.5,534.0 362.0,563.5" fill="#fefefe" />
<polygon points="383.0,561.5 377.5,534.0 393.0,533.5 399.5,560.0 394.5,560.0 383.0,537.5 384.5,558.0 391.5,560.0 383.0,561.5" fill="#fefefe" />
<polygon points="506.0,611.5 456.0,611.5 455.5,589.0 505.0,588.5 509.5,593.0 509.5,606.0 506.0,611.5" fill="#fefefe" />
<polygon points="474.5,609.0 474.5,591.0 459.0,591.5 457.5,608.0 474.5,609.0" fill="#fefefe" />
<polygon points="505.5,609.0 506.5,594.0 504.0,590.5 481.0,590.5 477.5,593.0 478.0,609.5 505.5,609.0" fill="#fefefe" />
<polygon points="1384.0,655.5 1371.0,655.5 1352.0,644.5 1336.0,640.5 1311.0,641.5 1287.5,650.0 1311.0,635.5 1335.0,631.5 1362.0,637.5 1374.0,644.5 1384.0,655.5" fill="#fefefe" />
<polygon points="238.0,800.5 179.0,800.5 166.0,795.5 160.5,789.0 158.5,782.0 158.5,742.0 162.5,732.0 173.0,724.5 186.0,721.5 254.0,721.5 255.0,745.5 192.0,745.5 189.5,748.0 189.5,774.0 192.0,776.5 228.5,776.0 227.0,767.5 209.5,767.0 210.0,752.5 255.5,753.0 254.5,787.0 248.0,796.5 238.0,800.5" fill="#fefefe" />
<polygon points="386.0,801.5 351.0,801.5 342.0,786.5 311.0,786.5 321.0,767.5 331.5,767.0 323.0,751.5 295.0,801.5 259.5,801.0 304.0,721.5 341.0,721.5 386.0,801.5" fill="#fefefe" />
<polygon points="516.0,801.5 435.0,801.5 434.5,722.0 515.0,721.5 532.0,727.5 537.5,739.0 537.5,784.0 532.0,795.5 516.0,801.5" fill="#fefefe" />
<polygon points="634.0,801.5 549.0,801.5 548.5,722.0 634.0,721.5 634.0,744.5 581.5,746.0 583.0,751.5 623.5,752.0 623.0,770.5 583.0,770.5 581.5,777.0 634.0,778.5 634.0,801.5" fill="#fefefe" />
<polygon points="818.0,801.5 784.0,801.5 775.0,786.5 744.0,786.5 753.0,767.5 764.5,767.0 756.0,751.5 728.0,801.5 691.5,801.0 737.0,721.5 773.0,721.5 818.0,801.5" fill="#fefefe" />
<polygon points="899.0,801.5 827.5,801.0 828.0,721.5 859.5,722.0 859.5,777.0 900.0,777.5 899.0,801.5" fill="#fefefe" />
<polygon points="1031.0,801.5 1001.5,801.0 1001.0,761.5 978.0,801.5 961.5,800.0 940.0,761.5 939.5,801.0 910.0,801.5 908.5,754.0 910.5,722.0 950.0,721.5 971.0,757.5 991.0,721.5 1031.0,721.5 1031.0,801.5" fill="#fefefe" />
<polygon points="1127.0,801.5 1043.0,801.5 1042.5,722.0 1127.0,721.5 1127.0,744.5 1075.5,745.0 1076.0,751.5 1116.5,752.0 1116.0,770.5 1076.0,770.5 1075.5,778.0 1127.0,778.5 1127.0,801.5" fill="#fefefe" />
<polygon points="1169.0,801.5 1136.5,801.0 1137.0,721.5 1169.5,722.0 1169.0,801.5" fill="#fefefe" />
<polygon points="1259.0,801.5 1179.0,801.5 1178.5,722.0 1258.0,721.5 1275.0,727.5 1280.5,738.0 1280.5,785.0 1275.0,795.5 1259.0,801.5" fill="#fefefe" />
<polygon points="1409.0,801.5 1374.0,801.5 1365.0,786.5 1334.0,786.5 1344.0,767.5 1354.5,767.0 1346.0,751.5 1318.0,801.5 1282.5,800.0 1327.0,721.5 1364.0,721.5 1409.0,801.5" fill="#fefefe" />
<polygon points="504.5,776.0 506.5,774.0 505.0,746.5 466.5,746.0 467.0,776.5 504.5,776.0" fill="#fefefe" />
<polygon points="1248.5,776.0 1249.0,746.5 1209.5,747.0 1210.0,776.5 1248.5,776.0" fill="#fefefe" />
<polygon points="774.0,660.5 700.0,660.5 678.0,645.5 660.0,641.5 639.0,645.5 629.0,650.5 624.0,656.5 640.0,648.5 657.0,646.5 675.0,650.5 684.0,655.5 688.0,660.5 443.0,660.5 441.0,655.5 418.5,656.0 440.5,654.0 432.0,642.5 412.5,641.0 420.0,638.5 433.0,638.5 432.0,635.5 188.0,632.5 192.0,624.5 344.0,626.5 339.0,615.5 163.0,614.5 155.5,608.0 156.0,605.5 375.0,609.5 447.0,608.5 445.5,578.0 437.0,567.5 385.0,566.5 360.0,568.5 355.0,602.5 156.0,599.5 160.5,545.0 163.5,536.0 168.0,532.5 186.0,532.5 192.0,523.5 218.0,522.5 221.5,497.0 232.0,491.5 252.0,491.5 261.0,474.5 298.0,473.5 308.0,486.5 413.0,488.5 414.5,507.0 403.5,521.0 419.0,522.5 422.5,518.0 498.5,323.0 503.5,314.0 544.0,265.5 558.0,259.5 609.0,209.5 615.0,210.5 620.0,207.5 691.0,159.5 697.0,150.5 713.0,140.5 719.0,138.5 726.0,139.5 745.0,130.5 750.0,115.5 877.0,123.5 885.0,126.5 973.0,199.5 983.0,198.5 987.0,200.5 992.5,207.0 992.5,218.0 1073.0,289.5 1090.0,290.5 1094.5,294.0 1097.5,309.0 1089.5,317.0 1089.5,336.0 1102.0,337.5 1127.5,360.0 1141.5,379.0 1150.5,401.0 1148.5,416.0 1141.5,430.0 1127.0,444.5 1115.0,449.5 1017.0,453.5 955.0,435.5 951.5,433.0 956.5,425.0 955.0,424.5 946.0,434.5 940.0,433.5 939.5,438.0 936.0,441.5 922.0,450.5 917.0,460.5 910.5,461.0 908.5,470.0 900.5,477.0 902.0,481.5 910.5,484.0 909.5,489.0 903.5,491.0 1217.0,476.5 1218.5,478.0 1216.5,481.0 1207.0,490.5 1203.0,491.5 624.0,512.5 608.5,452.0 609.0,445.5 647.5,440.0 623.5,454.0 639.0,505.5 794.0,497.5 791.0,491.5 785.0,491.5 780.5,488.0 780.5,481.0 797.0,480.5 804.0,485.5 809.0,483.5 811.5,481.0 805.5,474.0 814.0,475.5 818.5,471.0 810.5,465.0 809.5,461.0 820.0,451.5 827.5,452.0 821.5,457.0 827.0,465.5 831.0,463.5 840.0,465.5 845.5,459.0 838.0,456.5 833.0,451.5 828.0,451.5 829.5,446.0 836.0,442.5 838.5,444.0 837.5,450.0 841.0,451.5 849.0,446.5 858.0,444.5 859.5,427.0 862.0,424.5 864.5,425.0 868.0,434.5 875.5,430.0 877.5,422.0 872.0,417.5 863.0,418.5 860.5,416.0 860.5,411.0 868.0,405.5 875.5,411.0 876.0,417.5 883.5,417.0 884.5,410.0 879.5,406.0 879.5,401.0 889.0,394.5 892.0,399.5 894.0,398.5 899.5,389.0 899.0,386.5 893.0,386.5 889.0,390.5 887.5,388.0 887.5,383.0 896.5,373.0 895.5,367.0 902.0,372.5 912.0,371.5 916.0,366.5 920.5,365.0 923.0,358.5 929.0,358.5 932.5,355.0 934.5,348.0 925.0,345.5 916.0,350.5 910.0,359.5 902.0,359.5 895.0,366.5 891.5,361.0 893.0,355.5 904.0,352.5 910.0,345.5 920.0,344.5 925.0,338.5 934.0,339.5 937.0,334.5 941.0,334.5 948.0,328.5 959.0,333.5 966.0,333.5 966.0,328.5 971.0,328.5 978.0,333.5 983.0,328.5 994.5,330.0 993.5,322.0 996.5,317.0 993.0,313.5 847.0,217.5 841.0,208.5 632.0,330.5 596.0,357.5 561.5,397.0 551.5,453.0 555.5,469.0 549.5,480.0 541.5,508.0 542.0,510.5 551.5,512.0 551.5,520.0 561.5,556.0 561.5,578.0 533.5,581.0 566.5,581.0 565.5,550.0 560.0,528.5 568.5,550.0 570.5,593.0 518.0,594.5 517.5,606.0 564.0,605.5 537.0,608.5 528.5,623.0 570.0,624.5 572.5,630.0 517.0,629.5 512.0,635.5 572.0,636.5 578.5,643.0 583.0,655.5 606.0,655.5 606.0,651.5 585.0,651.5 584.0,649.5 604.0,649.5 604.5,647.0 596.0,636.5 579.5,635.0 599.0,632.5 610.0,644.5 608.0,619.5 869.0,624.5 1227.0,622.5 1229.5,617.0 1229.0,609.5 596.0,613.5 590.5,607.0 590.5,511.0 583.5,452.0 592.5,447.0 590.5,449.0 590.5,463.0 596.5,512.0 597.0,609.5 1229.0,604.5 1243.5,445.0 1274.5,433.0 1217.5,433.0 1229.0,425.5 1318.5,426.0 1261.5,448.0 1240.0,638.5 849.5,649.0 876.0,650.5 1238.0,645.5 1236.0,659.5 795.0,659.5 781.0,648.5 766.5,642.0 797.0,647.5 779.0,637.5 756.0,633.5 730.0,638.5 708.5,654.0 727.0,646.5 744.0,645.5 759.0,649.5 774.0,660.5" fill="#161711" />
<polygon points="431.5,554.0 483.5,475.0 487.5,453.0 492.0,448.5 498.0,448.5 504.5,456.0 504.5,460.0 499.0,467.5 489.5,469.0 489.0,476.5 500.0,479.5 511.5,466.0 511.5,451.0 507.0,445.5 499.0,442.5 498.5,440.0 523.0,360.5 523.5,368.0 513.5,417.0 514.0,432.5 543.5,384.0 581.0,344.5 619.0,317.5 841.0,186.5 849.5,211.0 863.0,221.5 865.0,219.5 879.0,225.5 888.0,225.5 896.5,220.0 901.5,208.0 901.0,196.5 904.5,209.0 901.5,222.0 892.0,230.5 881.0,230.5 875.0,227.5 874.5,229.0 1005.0,315.5 1009.0,316.5 1011.5,309.0 1018.0,304.5 1039.5,302.0 947.0,220.5 892.0,175.5 888.5,169.0 889.0,166.5 891.0,167.5 956.0,223.5 958.0,224.5 959.5,221.0 882.0,154.5 873.0,149.5 859.0,147.5 835.5,130.0 844.0,132.5 865.0,145.5 878.0,146.5 895.0,159.5 906.5,153.0 879.0,130.5 754.0,121.5 751.5,139.0 774.0,169.5 787.0,167.5 832.0,172.5 837.5,175.0 838.5,180.0 781.0,176.5 549.0,269.5 532.5,289.0 546.0,287.5 554.5,294.0 557.5,305.0 554.5,321.0 543.0,335.5 534.0,339.5 525.0,338.5 517.5,332.0 515.5,327.0 517.0,307.5 504.5,323.0 415.5,548.0 422.0,552.5 431.5,554.0" fill="#161711" />
<polygon points="709.5,170.0 728.5,161.0 718.0,142.5 696.5,155.0 704.5,170.0 709.5,170.0" fill="#161711" />
<polygon points="646.5,224.0 766.0,176.5 768.5,175.0 767.5,170.0 754.5,151.0 751.0,147.5 748.0,148.5 733.5,156.0 734.5,166.0 732.0,168.5 713.0,178.5 701.0,177.5 640.0,219.5 638.0,222.5 646.5,224.0" fill="#161711" />
<polygon points="871.0,205.5 863.0,205.5 856.0,202.5 849.5,197.0 843.5,185.0 842.5,175.0 847.5,160.0 853.0,154.5 862.0,151.5 878.0,155.5 884.5,163.0 888.5,174.0 888.5,186.0 885.5,195.0 880.0,201.5 871.0,205.5" fill="#161711" />
<polygon points="960.5,215.0 908.5,169.0 915.0,166.5 959.0,201.5 965.0,205.5 966.5,205.0 963.0,201.5 913.0,160.5 907.0,157.5 902.5,161.0 901.5,165.0 914.0,177.5 960.5,215.0" fill="#161711" />
<polygon points="620.5,219.0 693.5,168.0 689.0,165.5 623.0,210.5 616.5,216.0 620.5,219.0" fill="#161711" />
<polygon points="978.5,220.0 984.0,217.5 989.5,211.0 988.5,206.0 983.0,201.5 975.0,201.5 966.5,211.0 966.5,215.0 970.0,218.5 978.5,220.0" fill="#161711" />
<polygon points="575.5,253.0 595.0,245.5 620.5,228.0 610.0,220.5 574.0,251.5 575.5,253.0" fill="#161711" />
<polygon points="977.5,240.0 983.5,232.0 970.0,222.5 966.0,223.5 962.5,229.0 977.5,240.0" fill="#161711" />
<polygon points="1060.5,289.0 1063.5,287.0 1061.0,284.5 995.0,226.5 990.0,222.5 983.5,226.0 999.0,243.5 1039.0,277.5 1053.0,288.5 1060.5,289.0" fill="#161711" />
<polygon points="989.5,248.0 993.5,245.0 985.0,237.5 983.0,238.5 980.5,244.0 986.0,248.5 989.5,248.0" fill="#161711" />
<polygon points="1048.5,302.0 1047.5,289.0 995.0,244.5 998.0,249.5 1028.5,276.0 1025.5,280.0 1048.5,302.0" fill="#161711" />
<polygon points="1044.5,333.0 1045.5,319.0 1058.5,308.0 1058.5,298.0 1053.0,291.5 1054.5,305.0 1052.5,310.0 1037.5,315.0 1041.5,321.0 1041.5,332.0 1044.5,333.0" fill="#161711" />
<polygon points="529.5,336.0 539.5,329.0 546.5,315.0 546.5,300.0 539.0,292.5 531.0,294.5 523.5,302.0 517.5,316.0 519.5,331.0 525.0,336.5 529.5,336.0" fill="#161711" />
<polygon points="1070.5,315.0 1078.0,312.5 1081.5,308.0 1081.5,300.0 1075.0,293.5 1065.5,295.0 1071.5,302.0 1070.5,315.0" fill="#161711" />
<polygon points="1021.5,322.0 1024.5,317.0 1021.0,311.5 1018.0,311.5 1014.5,319.0 1018.0,322.5 1021.5,322.0" fill="#161711" />
<polygon points="1023.5,447.0 1035.0,444.5 1046.0,438.5 1058.5,424.0 1063.5,412.0 1064.5,399.0 1062.5,391.0 1045.5,367.0 1042.0,358.5 1063.5,380.0 1074.0,398.5 1141.0,396.5 1137.5,383.0 1121.5,361.0 1102.0,343.5 1086.0,341.5 1062.5,343.0 1072.0,350.5 1105.0,351.5 1117.5,366.0 1116.0,370.5 1073.0,371.5 1068.0,369.5 1048.5,347.0 1039.0,339.5 1024.0,340.5 1022.0,348.5 1018.5,339.0 1010.5,329.0 1001.0,323.5 999.5,328.0 1021.5,355.0 1021.5,362.0 1006.5,392.0 969.5,432.0 976.0,434.5 1006.0,414.5 1029.5,390.0 1041.0,370.5 1035.5,384.0 1021.5,404.0 1001.0,423.5 982.5,436.0 1009.0,445.5 1023.5,447.0" fill="#161711" />
<polygon points="995.5,345.0 998.5,343.0 997.0,339.5 994.0,337.5 987.5,339.0 992.0,344.5 995.5,345.0" fill="#161711" />
<polygon points="947.5,362.0 955.5,356.0 955.5,351.0 944.0,346.5 936.5,358.0 947.5,362.0" fill="#161711" />
<polygon points="997.5,376.0 1004.5,371.0 1004.5,366.0 995.0,354.5 988.5,359.0 995.5,365.0 994.5,376.0 997.5,376.0" fill="#161711" />
<polygon points="965.5,388.0 967.5,386.0 965.0,380.5 974.0,382.5 976.5,380.0 975.0,371.5 983.0,374.5 986.5,371.0 986.5,368.0 976.0,357.5 972.0,357.5 967.5,362.0 968.0,365.5 960.0,364.5 955.0,373.5 952.0,372.5 946.5,377.0 950.0,384.5 965.5,388.0" fill="#161711" />
<polygon points="924.5,388.0 933.5,382.0 934.0,376.5 939.5,375.0 942.5,370.0 941.0,366.5 929.0,364.5 920.5,372.0 921.5,377.0 916.5,385.0 921.0,388.5 924.5,388.0" fill="#161711" />
<polygon points="940.5,399.0 946.5,393.0 946.5,389.0 942.0,384.5 938.0,385.5 933.0,393.5 926.5,396.0 931.0,398.5 940.5,399.0" fill="#161711" />
<polygon points="981.5,399.0 988.5,390.0 986.0,386.5 981.0,386.5 973.5,397.0 975.0,399.5 981.5,399.0" fill="#161711" />
<polygon points="910.5,404.0 913.5,402.0 913.5,399.0 908.0,393.5 904.0,394.5 899.5,400.0 904.0,404.5 910.5,404.0" fill="#161711" />
<polygon points="524.5,510.0 530.5,489.0 528.5,485.0 533.5,463.0 541.5,454.0 556.0,407.5 528.5,450.0 520.5,468.0 510.5,510.0 524.5,510.0" fill="#161711" />
<polygon points="886.5,439.0 890.0,419.5 879.5,430.0 879.5,433.0 886.5,439.0" fill="#161711" />
<polygon points="844.0,437.5 835.5,432.0 835.5,427.0 840.0,422.5 844.0,422.5 849.5,427.0 844.0,437.5" fill="#161711" />
<polygon points="924.5,441.0 927.5,433.0 923.0,430.5 918.5,435.0 918.5,438.0 922.0,441.5 924.5,441.0" fill="#161711" />
<polygon points="947.0,455.5 942.0,455.5 936.5,451.0 936.5,446.0 942.0,441.5 947.0,441.5 952.5,446.0 951.5,452.0 947.0,455.5" fill="#161711" />
<polygon points="929.0,480.5 912.5,473.0 912.5,469.0 929.0,456.5 933.5,467.0 929.0,480.5" fill="#161711" />
<polygon points="543.5,483.0 543.5,480.0 550.5,474.0 552.5,469.0 552.5,465.0 548.0,459.5 547.5,472.0 543.0,475.5 537.0,474.5 535.5,479.0 536.0,482.5 543.5,483.0" fill="#161711" />
<polygon points="878.5,483.0 886.5,474.0 885.5,470.0 882.0,466.5 867.0,468.5 864.5,473.0 874.0,483.5 878.5,483.0" fill="#161711" />
<polygon points="847.5,487.0 851.5,482.0 842.0,472.5 835.5,481.0 840.0,485.5 847.5,487.0" fill="#161711" />
<polygon points="292.5,488.0 301.5,487.0 295.0,478.5 282.5,481.0 288.0,488.5 292.5,488.0" fill="#161711" />
<polygon points="273.5,489.0 280.5,488.0 273.0,479.5 265.0,480.5 259.5,489.0 273.5,489.0" fill="#161711" />
<polygon points="475.5,579.0 498.5,485.0 490.0,481.5 487.5,482.0 463.5,579.0 475.5,579.0" fill="#161711" />
<polygon points="830.5,495.0 836.5,493.0 830.0,486.5 827.0,486.5 819.5,493.0 820.0,495.5 830.5,495.0" fill="#161711" />
<polygon points="518.5,582.0 536.5,514.0 541.0,488.5 536.5,489.0 514.5,577.0 519.5,548.0 535.5,489.0 534.0,487.5 531.5,493.0 517.5,547.0 510.5,581.0 518.5,582.0" fill="#161711" />
<polygon points="1482.0,592.5 1451.0,586.5 1389.0,569.5 1358.0,568.5 1342.5,498.0 1292.5,493.0 1304.0,489.5 1389.0,491.5 1450.0,497.5 1456.5,504.0 1482.0,592.5" fill="#161711" />
<polygon points="409.5,505.0 410.5,499.0 407.0,491.5 354.0,492.5 351.5,503.0 353.5,503.0 357.0,496.5 405.0,496.5 407.5,505.0 409.5,505.0" fill="#161711" />
<polygon points="255.5,525.0 289.0,524.5 308.0,508.5 344.0,506.5 349.5,494.0 228.0,498.5 224.0,525.5 255.5,525.0" fill="#161711" />
<polygon points="1411.5,567.0 1394.5,502.0 1357.0,499.5 1364.5,555.0 1368.0,557.5 1411.5,567.0" fill="#161711" />
<polygon points="1475.5,583.0 1452.5,507.0 1446.0,501.5 1398.0,501.5 1398.5,511.0 1413.5,567.0 1420.0,570.5 1475.5,583.0" fill="#161711" />
<polygon points="1321.0,659.5 1253.5,659.0 1266.0,507.5 1270.5,609.0 1273.0,615.5 1369.0,626.5 1386.0,640.5 1496.5,658.0 1321.0,659.5" fill="#161711" />
<polygon points="313.5,526.0 317.0,514.5 310.0,514.5 301.5,525.0 313.5,526.0" fill="#161711" />
<polygon points="344.5,596.0 348.5,543.0 350.5,566.0 349.5,594.0 351.5,594.0 352.5,590.0 354.5,568.0 363.5,564.0 360.0,531.5 266.0,530.5 191.0,533.5 170.0,535.5 165.5,541.0 164.0,556.5 229.5,559.0 164.0,559.5 160.5,591.0 162.0,592.5 240.0,593.5 238.0,564.5 241.5,572.0 244.0,594.5 344.5,596.0" fill="#161711" />
<polygon points="400.5,561.0 393.5,533.0 377.0,532.5 381.5,561.0 400.5,561.0" fill="#161711" />
<polygon points="398.0,606.5 394.0,573.5 399.5,584.0 398.0,606.5" fill="#161711" />
<polygon points="506.5,612.0 509.5,609.0 510.5,593.0 504.0,587.5 454.5,588.0 456.0,612.5 506.5,612.0" fill="#161711" />
<polygon points="504.0,608.5 479.0,608.5 478.5,593.0 504.0,591.5 504.0,608.5" fill="#161711" />
<polygon points="1386.5,656.0 1368.0,639.5 1344.0,631.5 1323.0,631.5 1309.0,635.5 1281.5,654.0 1282.0,655.5 1293.0,648.5 1311.0,642.5 1338.0,641.5 1359.0,648.5 1371.0,656.5 1386.5,656.0" fill="#161711" />
<polygon points="416.0,660.5 168.0,660.5 167.5,651.0 170.5,643.0 178.0,637.5 407.0,641.5 414.5,651.0 416.0,660.5" fill="#161711" />
<polygon points="1407.0,845.5 32.5,845.0 155.0,682.5 1506.0,682.5 1407.0,845.5" fill="#161711" />
<polygon points="238.5,801.0 249.0,796.5 254.5,789.0 256.5,780.0 256.5,752.0 209.0,751.5 208.5,768.0 227.0,768.5 227.5,775.0 195.0,776.5 190.5,774.0 190.5,748.0 255.0,746.5 255.0,720.5 186.0,720.5 173.0,723.5 161.5,732.0 157.5,744.0 157.5,780.0 159.5,789.0 165.0,795.5 180.0,801.5 238.5,801.0" fill="#161711" />
<polygon points="387.5,802.0 341.0,720.5 304.0,720.5 258.5,801.0 295.0,802.5 323.0,752.5 330.5,766.0 319.5,767.0 310.0,787.5 342.0,787.5 350.0,802.5 387.5,802.0" fill="#161711" />
<polygon points="515.5,802.0 529.0,798.5 537.5,788.0 538.5,740.0 533.0,727.5 527.0,723.5 515.0,720.5 433.5,722.0 435.0,802.5 515.5,802.0" fill="#161711" />
<polygon points="635.5,802.0 635.0,777.5 582.5,777.0 583.0,771.5 624.5,771.0 624.0,750.5 583.0,750.5 582.5,746.0 635.0,745.5 634.0,720.5 548.5,721.0 548.0,802.5 635.5,802.0" fill="#161711" />
<polygon points="820.5,802.0 774.0,720.5 737.0,720.5 690.5,801.0 728.0,802.5 756.0,752.5 763.5,766.0 751.5,768.0 743.0,787.5 774.0,787.5 783.0,802.5 820.5,802.0" fill="#161711" />
<polygon points="900.5,802.0 901.0,776.5 860.5,776.0 860.5,721.0 827.0,720.5 826.5,802.0 900.5,802.0" fill="#161711" />
<polygon points="1032.5,802.0 1032.0,720.5 991.0,720.5 971.0,755.5 950.0,720.5 909.5,721.0 907.5,754.0 909.0,802.5 940.5,801.0 941.0,764.5 961.5,802.0 978.0,802.5 1000.0,763.5 1000.5,802.0 1032.5,802.0" fill="#161711" />
<polygon points="1128.5,802.0 1128.0,777.5 1076.5,777.0 1077.0,771.5 1117.5,771.0 1117.0,750.5 1077.0,750.5 1076.5,746.0 1128.0,745.5 1127.0,720.5 1042.5,721.0 1042.0,802.5 1128.5,802.0" fill="#161711" />
<polygon points="1170.5,802.0 1170.5,722.0 1136.0,720.5 1135.5,802.0 1170.5,802.0" fill="#161711" />
<polygon points="1258.5,802.0 1272.0,798.5 1280.5,788.0 1281.5,739.0 1277.5,729.0 1270.0,723.5 1257.0,720.5 1178.0,720.5 1177.5,802.0 1258.5,802.0" fill="#161711" />
<polygon points="1410.5,802.0 1364.0,720.5 1327.0,720.5 1281.5,800.0 1282.0,802.5 1318.0,802.5 1346.0,752.5 1353.5,766.0 1343.0,766.5 1332.0,787.5 1365.0,787.5 1373.0,802.5 1410.5,802.0" fill="#161711" />
<polygon points="504.0,775.5 468.0,775.5 467.5,747.0 505.0,747.5 504.0,775.5" fill="#161711" />
<polygon points="1247.0,775.5 1211.0,775.5 1210.5,747.0 1247.0,746.5 1247.0,775.5" fill="#161711" />
<polygon points="627.0,608.5 598.5,608.0 598.5,508.0 592.5,451.0 602.0,447.5 604.5,448.0 606.5,453.0 620.5,514.0 648.0,514.5 1211.0,497.5 1223.5,483.0 1224.5,446.0 1262.0,433.5 1273.5,433.0 1242.5,445.0 1229.0,604.5 627.0,608.5" fill="#e5442a" />
<polygon points="1492.0,648.5 1389.0,632.5 1374.0,618.5 1279.0,606.5 1272.5,503.0 1280.0,497.5 1291.0,497.5 1336.5,505.0 1348.5,577.0 1309.0,575.5 1427.0,594.5 1459.0,594.5 1375.0,573.5 1373.0,571.5 1381.0,571.5 1483.0,592.5 1492.5,604.0 1492.0,648.5" fill="#e5442a" />
<polygon points="344.0,596.5 244.0,593.5 243.5,587.0 345.0,583.5 344.0,596.5" fill="#e5442a" />
<polygon points="239.0,593.5 163.5,589.0 238.0,586.5 239.0,593.5" fill="#e5442a" />
<polygon points="1225.0,616.5 758.5,613.0 1226.0,610.5 1225.0,616.5" fill="#e5442a" />
<polygon points="621.0,305.5 621.0,303.5 788.0,201.5 790.5,199.0 789.0,182.5 829.5,185.0 824.0,192.5 781.0,217.5 621.0,305.5" fill="#c9c7c6" />
<polygon points="1009.0,313.5 954.5,276.0 1035.0,299.5 1032.0,302.5 1022.0,302.5 1014.0,305.5 1009.0,313.5" fill="#c9c7c6" />
<polygon points="904.0,372.5 897.5,367.0 901.0,360.5 911.0,359.5 917.0,350.5 927.0,345.5 934.5,349.0 929.0,357.5 921.5,359.0 919.0,365.5 916.0,365.5 910.0,371.5 904.0,372.5" fill="#c9c7c6" />
<polygon points="946.0,361.5 937.5,358.0 944.0,347.5 955.5,352.0 954.5,356.0 946.0,361.5" fill="#c9c7c6" />
<polygon points="996.0,376.5 994.5,375.0 996.5,365.0 989.5,360.0 994.0,355.5 998.5,358.0 1004.5,367.0 1004.5,370.0 996.0,376.5" fill="#c9c7c6" />
<polygon points="966.0,387.5 952.0,384.5 946.5,378.0 951.0,373.5 956.0,373.5 956.5,369.0 961.0,365.5 969.0,366.5 969.5,360.0 975.0,357.5 985.5,368.0 985.5,371.0 979.0,373.5 974.0,370.5 975.5,377.0 973.5,382.0 965.0,379.5 963.5,381.0 966.0,387.5" fill="#c9c7c6" />
<polygon points="425.0,550.5 423.5,549.0 425.5,542.0 458.5,468.0 515.0,362.5 492.5,439.0 481.5,452.0 478.5,468.0 425.0,550.5" fill="#c9c7c6" />
<polygon points="925.0,387.5 920.0,387.5 917.5,385.0 924.5,369.0 932.0,364.5 940.0,366.5 942.5,369.0 939.5,374.0 934.0,375.5 932.5,382.0 925.0,387.5" fill="#c9c7c6" />
<polygon points="514.0,428.5 514.5,415.0 516.5,414.0 516.5,404.0 518.5,405.0 518.5,393.0 520.5,392.0 519.5,387.0 521.5,387.0 520.5,382.0 522.5,382.0 526.0,368.5 523.5,416.0 514.0,428.5" fill="#c9c7c6" />
<polygon points="1025.0,443.5 1015.0,443.5 989.5,435.0 1026.0,409.5 1050.0,380.5 1059.5,396.0 1057.5,416.0 1044.0,434.5 1035.0,440.5 1025.0,443.5" fill="#c9c7c6" />
<polygon points="1078.0,395.5 1072.0,382.5 1132.0,381.5 1136.5,392.0 1078.0,395.5" fill="#c9c7c6" />
<polygon points="939.0,399.5 927.5,397.0 934.0,393.5 939.0,385.5 942.0,385.5 945.5,389.0 945.5,393.0 939.0,399.5" fill="#c9c7c6" />
<polygon points="980.0,399.5 974.5,397.0 984.0,386.5 987.5,391.0 980.0,399.5" fill="#c9c7c6" />
<polygon points="908.0,404.5 900.5,401.0 905.0,394.5 908.0,394.5 913.5,401.0 908.0,404.5" fill="#c9c7c6" />
<polygon points="870.0,433.5 866.5,432.0 862.5,424.0 868.0,418.5 873.0,418.5 876.5,425.0 870.0,433.5" fill="#c9c7c6" />
<polygon points="885.0,436.5 879.5,432.0 883.5,425.0 889.0,422.5 887.5,434.0 885.0,436.5" fill="#c9c7c6" />
<polygon points="840.0,464.5 827.0,464.5 822.5,457.0 829.0,451.5 832.0,451.5 839.0,458.5 843.5,459.0 840.0,464.5" fill="#c9c7c6" />
<polygon points="879.0,482.5 874.0,482.5 865.5,473.0 868.0,468.5 879.0,466.5 883.5,468.0 885.5,474.0 880.5,478.0 879.0,482.5" fill="#c9c7c6" />
<polygon points="848.0,486.5 841.0,485.5 836.5,481.0 843.0,472.5 850.5,482.0 848.0,486.5" fill="#c9c7c6" />
<polygon points="806.0,484.5 801.0,483.5 797.5,479.0 804.0,473.5 810.5,480.0 806.0,484.5" fill="#c9c7c6" />
<polygon points="834.0,494.5 819.5,494.0 829.0,486.5 835.5,492.0 834.0,494.5" fill="#c9c7c6" />
<polygon points="1401.0,561.5 1386.0,558.5 1378.0,559.5 1377.0,557.5 1374.0,558.5 1365.5,555.0 1357.5,506.0 1359.0,500.5 1388.5,505.0 1401.0,561.5" fill="#c9c7c6" />
<polygon points="1416.0,568.5 1398.5,504.0 1445.0,503.5 1461.5,560.0 1439.0,513.5 1408.0,513.5 1416.0,568.5" fill="#c9c7c6" />
<polygon points="255.0,522.5 230.0,522.5 233.0,519.5 286.0,512.5 296.5,513.0 288.0,520.5 255.0,522.5" fill="#c9c7c6" />
<polygon points="353.0,567.5 349.5,541.0 352.0,535.5 358.0,535.5 360.5,563.0 362.5,564.0 358.0,563.5 353.0,567.5" fill="#c9c7c6" />
<polygon points="394.0,560.5 384.5,558.0 383.0,540.5 387.5,544.0 394.0,560.5" fill="#c9c7c6" />
<polygon points="443.0,605.5 404.0,605.5 399.5,579.0 440.0,577.5 443.5,588.0 443.0,605.5" fill="#c9c7c6" />
<polygon points="474.0,609.5 457.5,608.0 459.0,591.5 474.5,591.0 474.0,609.5" fill="#c9c7c6" />
<polygon points="583.0,650.5 579.5,645.0 579.5,642.0 583.0,639.5 597.0,639.5 603.5,647.0 584.0,648.5 583.0,650.5" fill="#c9c7c6" />
<polygon points="435.0,653.5 418.0,653.5 415.5,646.0 432.0,645.5 438.5,651.0 435.0,653.5" fill="#c9c7c6" />
<polygon points="690.0,661.5 621.5,661.0 690.0,659.5 690.0,661.5" fill="#c9c7c6" />
</svg>